<mxfile host="app.diagrams.net" modified="2021-12-21T13:40:31.519Z" agent="5.0 (Windows NT 10.0; Win64; x64) AppleWebKit/537.36 (KHTML, like Gecko) Chrome/96.0.4664.110 Safari/537.36 Edg/96.0.1054.62" etag="yjLsN1bNEmURzClHbFpE" version="16.0.0" type="github" pages="2">
  <diagram id="R2lEEEUBdFMjLlhIrx00" name="Page-1">
    <mxGraphModel dx="1038" dy="579" grid="1" gridSize="10" guides="1" tooltips="1" connect="1" arrows="1" fold="1" page="1" pageScale="1" pageWidth="850" pageHeight="1100" math="0" shadow="0" extFonts="Permanent Marker^https://fonts.googleapis.com/css?family=Permanent+Marker">
      <root>
        <mxCell id="0" />
        <mxCell id="1" parent="0" />
        <mxCell id="0VOpyOxhPKExKem6R_dT-35" value="" style="rounded=1;whiteSpace=wrap;html=1;glass=0;strokeColor=#000000;fillColor=#A680B8;gradientColor=none;" vertex="1" parent="1">
          <mxGeometry x="180" y="30" width="400" height="500" as="geometry" />
        </mxCell>
        <mxCell id="SXBODg-EOapfq7OU_36K-23" value="Client" style="rounded=1;whiteSpace=wrap;html=1;glass=0;fillColor=#FF3399;" vertex="1" parent="1">
          <mxGeometry y="70" width="110" height="190" as="geometry" />
        </mxCell>
        <mxCell id="SXBODg-EOapfq7OU_36K-22" value="JSP&lt;br&gt;(LectureList&lt;br&gt;IndexPage&lt;br&gt;Logout&lt;br&gt;etc)" style="rounded=1;whiteSpace=wrap;html=1;glass=0;fillColor=#FF9933;" vertex="1" parent="1">
          <mxGeometry x="210" y="360" width="120" height="80" as="geometry" />
        </mxCell>
        <mxCell id="SXBODg-EOapfq7OU_36K-24" value="DAO&lt;br&gt;(Student,Lecture&lt;br&gt;Inclass,Login&lt;br&gt;Register&lt;br&gt;etc)&lt;br&gt;&lt;br&gt;" style="rounded=1;whiteSpace=wrap;html=1;glass=0;strokeColor=#FFFF00;fillColor=#FFFF33;" vertex="1" parent="1">
          <mxGeometry x="410" y="70" width="120" height="190" as="geometry" />
        </mxCell>
        <mxCell id="SXBODg-EOapfq7OU_36K-25" value="VO" style="rounded=1;whiteSpace=wrap;html=1;glass=0;fillColor=#FFFF33;" vertex="1" parent="1">
          <mxGeometry x="410" y="320" width="120" height="190" as="geometry" />
        </mxCell>
        <mxCell id="SXBODg-EOapfq7OU_36K-26" value="Controller&lt;br&gt;Servlet&lt;br&gt;(login,logout,lecture&lt;br&gt;findInfo,Main &lt;br&gt;etc)" style="rounded=1;whiteSpace=wrap;html=1;glass=0;fillColor=#FF3333;" vertex="1" parent="1">
          <mxGeometry x="230" y="70" width="120" height="190" as="geometry" />
        </mxCell>
        <mxCell id="0VOpyOxhPKExKem6R_dT-2" value="" style="endArrow=classic;html=1;rounded=0;exitX=0;exitY=1;exitDx=0;exitDy=0;" edge="1" parent="1">
          <mxGeometry width="50" height="50" relative="1" as="geometry">
            <mxPoint x="727.5735931288073" y="178.2842712474619" as="sourcePoint" />
            <mxPoint x="530" y="180" as="targetPoint" />
          </mxGeometry>
        </mxCell>
        <mxCell id="0VOpyOxhPKExKem6R_dT-3" value="" style="endArrow=classic;html=1;rounded=0;exitX=1.01;exitY=0.362;exitDx=0;exitDy=0;exitPerimeter=0;entryX=-0.004;entryY=0.249;entryDx=0;entryDy=0;entryPerimeter=0;" edge="1" parent="1" source="SXBODg-EOapfq7OU_36K-24" target="0VOpyOxhPKExKem6R_dT-30">
          <mxGeometry width="50" height="50" relative="1" as="geometry">
            <mxPoint x="570" y="190" as="sourcePoint" />
            <mxPoint x="620" y="140" as="targetPoint" />
          </mxGeometry>
        </mxCell>
        <mxCell id="0VOpyOxhPKExKem6R_dT-4" value="" style="endArrow=classic;html=1;rounded=0;exitX=1.01;exitY=0.32;exitDx=0;exitDy=0;exitPerimeter=0;" edge="1" parent="1" source="SXBODg-EOapfq7OU_36K-26">
          <mxGeometry width="50" height="50" relative="1" as="geometry">
            <mxPoint x="360" y="180" as="sourcePoint" />
            <mxPoint x="410" y="130" as="targetPoint" />
          </mxGeometry>
        </mxCell>
        <mxCell id="0VOpyOxhPKExKem6R_dT-5" value="" style="endArrow=classic;html=1;rounded=0;exitX=1;exitY=0.25;exitDx=0;exitDy=0;" edge="1" parent="1" source="SXBODg-EOapfq7OU_36K-23">
          <mxGeometry width="50" height="50" relative="1" as="geometry">
            <mxPoint x="180" y="170" as="sourcePoint" />
            <mxPoint x="230" y="120" as="targetPoint" />
          </mxGeometry>
        </mxCell>
        <mxCell id="0VOpyOxhPKExKem6R_dT-9" value="" style="endArrow=classic;html=1;rounded=0;exitX=0;exitY=0;exitDx=0;exitDy=0;entryX=0.922;entryY=0.998;entryDx=0;entryDy=0;entryPerimeter=0;" edge="1" parent="1" source="SXBODg-EOapfq7OU_36K-22" target="SXBODg-EOapfq7OU_36K-23">
          <mxGeometry width="50" height="50" relative="1" as="geometry">
            <mxPoint x="110" y="240" as="sourcePoint" />
            <mxPoint x="160" y="190" as="targetPoint" />
            <Array as="points" />
          </mxGeometry>
        </mxCell>
        <mxCell id="0VOpyOxhPKExKem6R_dT-10" value="" style="endArrow=classic;html=1;rounded=0;exitX=-0.017;exitY=0.594;exitDx=0;exitDy=0;exitPerimeter=0;" edge="1" parent="1" source="SXBODg-EOapfq7OU_36K-24">
          <mxGeometry width="50" height="50" relative="1" as="geometry">
            <mxPoint x="300" y="230" as="sourcePoint" />
            <mxPoint x="350" y="180" as="targetPoint" />
          </mxGeometry>
        </mxCell>
        <mxCell id="0VOpyOxhPKExKem6R_dT-11" value="" style="endArrow=classic;html=1;rounded=0;entryX=-0.017;entryY=0.356;entryDx=0;entryDy=0;entryPerimeter=0;" edge="1" parent="1" target="SXBODg-EOapfq7OU_36K-25">
          <mxGeometry width="50" height="50" relative="1" as="geometry">
            <mxPoint x="340" y="390" as="sourcePoint" />
            <mxPoint x="390" y="340" as="targetPoint" />
          </mxGeometry>
        </mxCell>
        <mxCell id="0VOpyOxhPKExKem6R_dT-12" value="" style="endArrow=classic;html=1;rounded=0;exitX=0.442;exitY=1.015;exitDx=0;exitDy=0;exitPerimeter=0;entryX=0.5;entryY=0;entryDx=0;entryDy=0;" edge="1" parent="1" source="SXBODg-EOapfq7OU_36K-26" target="SXBODg-EOapfq7OU_36K-22">
          <mxGeometry width="50" height="50" relative="1" as="geometry">
            <mxPoint x="320" y="280" as="sourcePoint" />
            <mxPoint x="370" y="230" as="targetPoint" />
            <Array as="points" />
          </mxGeometry>
        </mxCell>
        <mxCell id="0VOpyOxhPKExKem6R_dT-13" value="" style="endArrow=classic;html=1;rounded=0;entryX=0.043;entryY=0.04;entryDx=0;entryDy=0;entryPerimeter=0;exitX=0.997;exitY=0.968;exitDx=0;exitDy=0;exitPerimeter=0;" edge="1" parent="1" source="SXBODg-EOapfq7OU_36K-26" target="SXBODg-EOapfq7OU_36K-25">
          <mxGeometry width="50" height="50" relative="1" as="geometry">
            <mxPoint x="320" y="280" as="sourcePoint" />
            <mxPoint x="370" y="230" as="targetPoint" />
          </mxGeometry>
        </mxCell>
        <mxCell id="0VOpyOxhPKExKem6R_dT-14" value="" style="endArrow=classic;startArrow=classic;html=1;rounded=0;exitX=0.683;exitY=0.006;exitDx=0;exitDy=0;exitPerimeter=0;" edge="1" parent="1" source="SXBODg-EOapfq7OU_36K-25">
          <mxGeometry width="50" height="50" relative="1" as="geometry">
            <mxPoint x="445" y="310" as="sourcePoint" />
            <mxPoint x="495" y="260" as="targetPoint" />
          </mxGeometry>
        </mxCell>
        <mxCell id="0VOpyOxhPKExKem6R_dT-15" value="SQL" style="text;html=1;align=center;verticalAlign=middle;resizable=0;points=[];autosize=1;strokeColor=none;fillColor=none;" vertex="1" parent="1">
          <mxGeometry x="600" y="120" width="40" height="20" as="geometry" />
        </mxCell>
        <mxCell id="0VOpyOxhPKExKem6R_dT-16" value="Web.xml" style="text;html=1;align=center;verticalAlign=middle;resizable=0;points=[];autosize=1;strokeColor=none;fillColor=none;" vertex="1" parent="1">
          <mxGeometry x="120" y="90" width="60" height="20" as="geometry" />
        </mxCell>
        <mxCell id="0VOpyOxhPKExKem6R_dT-17" value="Request" style="text;html=1;align=center;verticalAlign=middle;resizable=0;points=[];autosize=1;strokeColor=none;fillColor=none;" vertex="1" parent="1">
          <mxGeometry x="350" y="110" width="60" height="20" as="geometry" />
        </mxCell>
        <mxCell id="0VOpyOxhPKExKem6R_dT-18" value="Response" style="text;html=1;align=center;verticalAlign=middle;resizable=0;points=[];autosize=1;strokeColor=none;fillColor=none;" vertex="1" parent="1">
          <mxGeometry x="80" y="320" width="70" height="20" as="geometry" />
        </mxCell>
        <mxCell id="0VOpyOxhPKExKem6R_dT-19" value="View" style="text;html=1;align=center;verticalAlign=middle;resizable=0;points=[];autosize=1;strokeColor=none;fillColor=none;" vertex="1" parent="1">
          <mxGeometry x="280" y="300" width="40" height="20" as="geometry" />
        </mxCell>
        <mxCell id="0VOpyOxhPKExKem6R_dT-20" value="&lt;b&gt;Dto&lt;/b&gt;" style="text;html=1;align=center;verticalAlign=middle;resizable=0;points=[];autosize=1;strokeColor=none;fillColor=none;" vertex="1" parent="1">
          <mxGeometry x="360" y="150" width="40" height="20" as="geometry" />
        </mxCell>
        <mxCell id="0VOpyOxhPKExKem6R_dT-22" value="Result" style="text;html=1;align=center;verticalAlign=middle;resizable=0;points=[];autosize=1;strokeColor=none;fillColor=none;" vertex="1" parent="1">
          <mxGeometry x="355" y="190" width="50" height="20" as="geometry" />
        </mxCell>
        <mxCell id="0VOpyOxhPKExKem6R_dT-24" value="Result" style="text;html=1;align=center;verticalAlign=middle;resizable=0;points=[];autosize=1;strokeColor=none;fillColor=none;" vertex="1" parent="1">
          <mxGeometry x="595" y="190" width="50" height="20" as="geometry" />
        </mxCell>
        <mxCell id="0VOpyOxhPKExKem6R_dT-25" value="&lt;b&gt;Dto&lt;/b&gt;" style="text;html=1;align=center;verticalAlign=middle;resizable=0;points=[];autosize=1;strokeColor=none;fillColor=none;" vertex="1" parent="1">
          <mxGeometry x="600" y="155" width="40" height="20" as="geometry" />
        </mxCell>
        <mxCell id="0VOpyOxhPKExKem6R_dT-26" value="Create" style="text;html=1;align=center;verticalAlign=middle;resizable=0;points=[];autosize=1;strokeColor=none;fillColor=none;" vertex="1" parent="1">
          <mxGeometry x="375" y="270" width="50" height="20" as="geometry" />
        </mxCell>
        <mxCell id="0VOpyOxhPKExKem6R_dT-27" value="Create" style="text;html=1;align=center;verticalAlign=middle;resizable=0;points=[];autosize=1;strokeColor=none;fillColor=none;" vertex="1" parent="1">
          <mxGeometry x="500" y="280" width="50" height="20" as="geometry" />
        </mxCell>
        <mxCell id="0VOpyOxhPKExKem6R_dT-28" value="Reference" style="text;html=1;align=center;verticalAlign=middle;resizable=0;points=[];autosize=1;strokeColor=none;fillColor=none;" vertex="1" parent="1">
          <mxGeometry x="345" y="360" width="70" height="20" as="geometry" />
        </mxCell>
        <mxCell id="0VOpyOxhPKExKem6R_dT-30" value="&#xa;&#xa;&lt;span style=&quot;color: rgb(0, 0, 0); font-family: helvetica; font-size: 12px; font-style: normal; font-weight: 400; letter-spacing: normal; text-align: center; text-indent: 0px; text-transform: none; word-spacing: 0px; background-color: rgb(248, 249, 250); display: inline; float: none;&quot;&gt;DB&lt;/span&gt;&#xa;&#xa;" style="shape=cylinder3;whiteSpace=wrap;html=1;boundedLbl=1;backgroundOutline=1;size=15;glass=1;strokeColor=#000000;fillColor=#CC99FF;" vertex="1" parent="1">
          <mxGeometry x="700" y="100" width="110" height="150" as="geometry" />
        </mxCell>
        <mxCell id="0VOpyOxhPKExKem6R_dT-31" value="input&amp;nbsp;&amp;nbsp;data" style="text;html=1;align=center;verticalAlign=middle;resizable=0;points=[];autosize=1;strokeColor=none;fillColor=none;" vertex="1" parent="1">
          <mxGeometry x="110" y="130" width="70" height="20" as="geometry" />
        </mxCell>
      </root>
    </mxGraphModel>
  </diagram>
  <diagram id="EJl2h-yCLdc2njRAOXuI" name="Page-2">
    <mxGraphModel dx="544" dy="559" grid="1" gridSize="10" guides="1" tooltips="1" connect="1" arrows="1" fold="1" page="1" pageScale="1" pageWidth="827" pageHeight="1169" math="0" shadow="0">
      <root>
        <mxCell id="y-5DVyxZERVq7f3BHM6U-0" />
        <mxCell id="y-5DVyxZERVq7f3BHM6U-1" parent="y-5DVyxZERVq7f3BHM6U-0" />
      </root>
    </mxGraphModel>
  </diagram>
</mxfile>
